<svg width="366" height="23" viewBox="0 0 366 23" fill="none" xmlns="http://www.w3.org/2000/svg">
  <path d="M8.352 10.16L7.136 13.968H13.184L9.92 4.08H9.504L8.352 10.16ZM0.448 22V19.6H2.656L9.248 0.943998H14.4L21.184 19.6H23.488V22H12.352V19.6H15.04L13.92 16.144H6.464L5.376 19.6H7.968V22H0.448ZM37.72 22.352L37.304 18.96H36.248C35 20.784 33.656 22.48 30.808 22.48C27.576 22.48 25.784 20.56 25.816 16.912L25.912 8.912L23.512 8.336V6.416L29.528 5.552H31.352V15.888C31.352 17.68 32.056 18.416 33.656 18.416C34.712 18.416 35.736 18.096 36.824 17.456V8.88L34.52 8.336V6.416L40.536 5.552H42.36V19.472L44.632 19.984V22L37.72 22.352ZM53.1503 22.448C50.0463 22.448 48.0623 20.944 48.0623 17.328V8.4H45.8543V6.32L48.5423 5.968L50.5263 1.168H53.8542L53.4062 5.936H57.1823V8.4H53.5983V17.072C53.5983 18.544 54.2703 19.152 55.5503 19.152C56.2543 19.152 56.7343 18.96 57.0223 18.864L57.7583 20.912C57.2463 21.296 55.7423 22.448 53.1503 22.448ZM59.3068 22V19.728H61.4508V9.424H59.1788V7.28L64.3948 5.552H66.0588L66.4108 9.616H67.5308C68.4268 6.608 69.5468 5.264 71.6908 5.264C73.3548 5.264 74.3787 6.256 74.6988 7.728C74.4748 9.392 73.4188 10.608 71.7868 10.608C70.7628 10.608 69.9628 10.192 69.2908 9.424C68.3308 9.936 67.5628 10.64 66.9548 11.504V19.728H69.8348V22H59.3068ZM84.4498 7.152C82.4658 7.152 81.5058 8.592 81.4098 12.56H86.8818C86.9458 11.696 86.9778 11.28 86.9778 10.416C86.9778 8.464 86.0498 7.152 84.4498 7.152ZM84.7378 22.48C79.2977 22.48 75.8738 19.248 75.8738 13.904C75.8738 8.56 79.4258 5.104 84.4818 5.104C88.9298 5.104 91.8098 7.696 91.8098 11.952C91.8098 12.912 91.7138 13.616 91.5858 14.32H81.4738C81.8258 17.648 83.7138 19.28 86.2738 19.28C88.2258 19.28 89.4098 18.608 90.4018 17.424L91.9698 18.64C90.5938 20.816 88.4818 22.48 84.7378 22.48ZM94.0895 22V19.728H96.2335V9.424H93.9615V7.28L99.1455 5.552H100.778L101.258 8.592H102.314C103.338 6.992 104.714 5.104 107.498 5.104C109.994 5.104 111.594 6.288 112.17 8.592H112.97C113.994 6.992 115.37 5.104 118.154 5.104C121.322 5.104 123.05 7.024 123.05 10.64V19.728H125.194V22H115.882V19.728H117.546V11.696C117.546 9.872 116.842 9.136 115.306 9.136C114.346 9.136 113.386 9.456 112.362 10.032C112.394 10.224 112.394 10.416 112.394 10.64V19.728H114.09V22H105.226V19.728H106.89V11.696C106.89 9.872 106.186 9.136 104.65 9.136C103.69 9.136 102.762 9.456 101.738 10V19.728H103.402V22H94.0895ZM135.794 7.152C133.81 7.152 132.85 8.592 132.754 12.56H138.226C138.29 11.696 138.322 11.28 138.322 10.416C138.322 8.464 137.394 7.152 135.794 7.152ZM136.082 22.48C130.641 22.48 127.218 19.248 127.218 13.904C127.218 8.56 130.77 5.104 135.826 5.104C140.274 5.104 143.154 7.696 143.154 11.952C143.154 12.912 143.058 13.616 142.93 14.32H132.818C133.17 17.648 135.058 19.28 137.618 19.28C139.57 19.28 140.754 18.608 141.746 17.424L143.314 18.64C141.938 20.816 139.826 22.48 136.082 22.48ZM145.433 22V19.728H147.577V9.424H145.305V7.28L150.489 5.552H152.121L152.601 8.592H153.657C154.873 6.8 156.249 5.104 159.097 5.104C162.329 5.104 164.089 7.024 164.089 10.64V19.728H166.233V22H156.825V19.728H158.585V11.696C158.585 9.872 157.849 9.136 156.249 9.136C155.193 9.136 154.169 9.488 153.081 10.128V19.728H154.809V22H145.433ZM174.307 22.448C171.203 22.448 169.219 20.944 169.219 17.328V8.4H167.011V6.32L169.699 5.968L171.683 1.168H175.01L174.562 5.936H178.339V8.4H174.755V17.072C174.755 18.544 175.427 19.152 176.707 19.152C177.411 19.152 177.891 18.96 178.179 18.864L178.915 20.912C178.403 21.296 176.899 22.448 174.307 22.448ZM194.852 10.16L193.636 13.968H199.684L196.42 4.08H196.004L194.852 10.16ZM186.948 22V19.6H189.156L195.748 0.943998H200.9L207.684 19.6H209.988V22H198.852V19.6H201.54L200.42 16.144H192.964L191.876 19.6H194.468V22H186.948ZM224.22 22.352L223.804 18.96H222.748C221.5 20.784 220.156 22.48 217.308 22.48C214.076 22.48 212.284 20.56 212.316 16.912L212.412 8.912L210.012 8.336V6.416L216.028 5.552H217.852V15.888C217.852 17.68 218.556 18.416 220.156 18.416C221.212 18.416 222.236 18.096 223.324 17.456V8.88L221.02 8.336V6.416L227.036 5.552H228.86V19.472L231.132 19.984V22L224.22 22.352ZM239.65 22.448C236.546 22.448 234.562 20.944 234.562 17.328V8.4H232.354V6.32L235.042 5.968L237.026 1.168H240.354L239.906 5.936H243.682V8.4H240.098V17.072C240.098 18.544 240.77 19.152 242.05 19.152C242.754 19.152 243.234 18.96 243.522 18.864L244.258 20.912C243.746 21.296 242.242 22.448 239.65 22.448ZM245.807 22V19.728H247.951V9.424H245.679V7.28L250.895 5.552H252.559L252.911 9.616H254.031C254.927 6.608 256.047 5.264 258.191 5.264C259.855 5.264 260.879 6.256 261.199 7.728C260.975 9.392 259.919 10.608 258.287 10.608C257.263 10.608 256.463 10.192 255.791 9.424C254.831 9.936 254.063 10.64 253.455 11.504V19.728H256.335V22H245.807ZM270.95 7.152C268.966 7.152 268.006 8.592 267.91 12.56H273.382C273.446 11.696 273.478 11.28 273.478 10.416C273.478 8.464 272.55 7.152 270.95 7.152ZM271.238 22.48C265.798 22.48 262.374 19.248 262.374 13.904C262.374 8.56 265.926 5.104 270.982 5.104C275.43 5.104 278.31 7.696 278.31 11.952C278.31 12.912 278.214 13.616 278.086 14.32H267.974C268.326 17.648 270.214 19.28 272.774 19.28C274.726 19.28 275.91 18.608 276.902 17.424L278.47 18.64C277.094 20.816 274.982 22.48 271.238 22.48ZM280.59 22V19.728H282.734V9.424H280.462V7.28L285.646 5.552H287.278L287.758 8.592H288.814C289.838 6.992 291.214 5.104 293.998 5.104C296.494 5.104 298.094 6.288 298.67 8.592H299.47C300.494 6.992 301.87 5.104 304.654 5.104C307.822 5.104 309.55 7.024 309.55 10.64V19.728H311.694V22H302.382V19.728H304.046V11.696C304.046 9.872 303.342 9.136 301.806 9.136C300.846 9.136 299.886 9.456 298.862 10.032C298.894 10.224 298.894 10.416 298.894 10.64V19.728H300.59V22H291.726V19.728H293.39V11.696C293.39 9.872 292.686 9.136 291.15 9.136C290.19 9.136 289.262 9.456 288.238 10V19.728H289.902V22H280.59ZM322.294 7.152C320.31 7.152 319.35 8.592 319.254 12.56H324.726C324.79 11.696 324.822 11.28 324.822 10.416C324.822 8.464 323.894 7.152 322.294 7.152ZM322.582 22.48C317.141 22.48 313.718 19.248 313.718 13.904C313.718 8.56 317.27 5.104 322.326 5.104C326.774 5.104 329.654 7.696 329.654 11.952C329.654 12.912 329.558 13.616 329.43 14.32H319.318C319.67 17.648 321.558 19.28 324.118 19.28C326.07 19.28 327.254 18.608 328.246 17.424L329.814 18.64C328.438 20.816 326.326 22.48 322.582 22.48ZM331.933 22V19.728H334.077V9.424H331.805V7.28L336.989 5.552H338.621L339.101 8.592H340.157C341.373 6.8 342.749 5.104 345.597 5.104C348.829 5.104 350.589 7.024 350.589 10.64V19.728H352.733V22H343.325V19.728H345.085V11.696C345.085 9.872 344.349 9.136 342.749 9.136C341.693 9.136 340.669 9.488 339.581 10.128V19.728H341.309V22H331.933ZM360.807 22.448C357.703 22.448 355.719 20.944 355.719 17.328V8.4H353.511V6.32L356.199 5.968L358.183 1.168H361.51L361.062 5.936H364.839V8.4H361.255V17.072C361.255 18.544 361.927 19.152 363.207 19.152C363.911 19.152 364.391 18.96 364.679 18.864L365.415 20.912C364.903 21.296 363.399 22.448 360.807 22.448Z" fill="#3D3529"/>
  </svg>
  