<svg width="179" height="55" viewBox="0 0 179 55" fill="none" xmlns="http://www.w3.org/2000/svg">
  <path d="M8.352 10.16L7.136 13.968H13.184L9.92 4.08H9.504L8.352 10.16ZM0.448 22V19.6H2.656L9.248 0.943998H14.4L21.184 19.6H23.488V22H12.352V19.6H15.04L13.92 16.144H6.464L5.376 19.6H7.968V22H0.448ZM37.72 22.352L37.304 18.96H36.248C35 20.784 33.656 22.48 30.808 22.48C27.576 22.48 25.784 20.56 25.816 16.912L25.912 8.912L23.512 8.336V6.416L29.528 5.552H31.352V15.888C31.352 17.68 32.056 18.416 33.656 18.416C34.712 18.416 35.736 18.096 36.824 17.456V8.88L34.52 8.336V6.416L40.536 5.552H42.36V19.472L44.632 19.984V22L37.72 22.352ZM53.1503 22.448C50.0463 22.448 48.0623 20.944 48.0623 17.328V8.4H45.8543V6.32L48.5423 5.968L50.5263 1.168H53.8542L53.4062 5.936H57.1823V8.4H53.5983V17.072C53.5983 18.544 54.2703 19.152 55.5503 19.152C56.2543 19.152 56.7343 18.96 57.0223 18.864L57.7583 20.912C57.2463 21.296 55.7423 22.448 53.1503 22.448ZM59.3068 22V19.728H61.4508V9.424H59.1788V7.28L64.3948 5.552H66.0588L66.4108 9.616H67.5308C68.4268 6.608 69.5468 5.264 71.6908 5.264C73.3548 5.264 74.3787 6.256 74.6988 7.728C74.4748 9.392 73.4188 10.608 71.7868 10.608C70.7628 10.608 69.9628 10.192 69.2908 9.424C68.3308 9.936 67.5628 10.64 66.9548 11.504V19.728H69.8348V22H59.3068ZM84.4498 7.152C82.4658 7.152 81.5058 8.592 81.4098 12.56H86.8818C86.9458 11.696 86.9778 11.28 86.9778 10.416C86.9778 8.464 86.0498 7.152 84.4498 7.152ZM84.7378 22.48C79.2977 22.48 75.8738 19.248 75.8738 13.904C75.8738 8.56 79.4258 5.104 84.4818 5.104C88.9298 5.104 91.8098 7.696 91.8098 11.952C91.8098 12.912 91.7138 13.616 91.5858 14.32H81.4738C81.8258 17.648 83.7138 19.28 86.2738 19.28C88.2258 19.28 89.4098 18.608 90.4018 17.424L91.9698 18.64C90.5938 20.816 88.4818 22.48 84.7378 22.48ZM94.0895 22V19.728H96.2335V9.424H93.9615V7.28L99.1455 5.552H100.778L101.258 8.592H102.314C103.338 6.992 104.714 5.104 107.498 5.104C109.994 5.104 111.594 6.288 112.17 8.592H112.97C113.994 6.992 115.37 5.104 118.154 5.104C121.322 5.104 123.05 7.024 123.05 10.64V19.728H125.194V22H115.882V19.728H117.546V11.696C117.546 9.872 116.842 9.136 115.306 9.136C114.346 9.136 113.386 9.456 112.362 10.032C112.394 10.224 112.394 10.416 112.394 10.64V19.728H114.09V22H105.226V19.728H106.89V11.696C106.89 9.872 106.186 9.136 104.65 9.136C103.69 9.136 102.762 9.456 101.738 10V19.728H103.402V22H94.0895ZM135.794 7.152C133.81 7.152 132.85 8.592 132.754 12.56H138.226C138.29 11.696 138.322 11.28 138.322 10.416C138.322 8.464 137.394 7.152 135.794 7.152ZM136.082 22.48C130.641 22.48 127.218 19.248 127.218 13.904C127.218 8.56 130.77 5.104 135.826 5.104C140.274 5.104 143.154 7.696 143.154 11.952C143.154 12.912 143.058 13.616 142.93 14.32H132.818C133.17 17.648 135.058 19.28 137.618 19.28C139.57 19.28 140.754 18.608 141.746 17.424L143.314 18.64C141.938 20.816 139.826 22.48 136.082 22.48ZM145.433 22V19.728H147.577V9.424H145.305V7.28L150.489 5.552H152.121L152.601 8.592H153.657C154.873 6.8 156.249 5.104 159.097 5.104C162.329 5.104 164.089 7.024 164.089 10.64V19.728H166.233V22H156.825V19.728H158.585V11.696C158.585 9.872 157.849 9.136 156.249 9.136C155.193 9.136 154.169 9.488 153.081 10.128V19.728H154.809V22H145.433ZM174.307 22.448C171.203 22.448 169.219 20.944 169.219 17.328V8.4H167.011V6.32L169.699 5.968L171.683 1.168H175.01L174.562 5.936H178.339V8.4H174.755V17.072C174.755 18.544 175.427 19.152 176.707 19.152C177.411 19.152 177.891 18.96 178.179 18.864L178.915 20.912C178.403 21.296 176.899 22.448 174.307 22.448ZM8.352 42.16L7.136 45.968H13.184L9.92 36.08H9.504L8.352 42.16ZM0.448 54V51.6H2.656L9.248 32.944H14.4L21.184 51.6H23.488V54H12.352V51.6H15.04L13.92 48.144H6.464L5.376 51.6H7.968V54H0.448ZM37.72 54.352L37.304 50.96H36.248C35 52.784 33.656 54.48 30.808 54.48C27.576 54.48 25.784 52.56 25.816 48.912L25.912 40.912L23.512 40.336V38.416L29.528 37.552H31.352V47.888C31.352 49.68 32.056 50.416 33.656 50.416C34.712 50.416 35.736 50.096 36.824 49.456V40.88L34.52 40.336V38.416L40.536 37.552H42.36V51.472L44.632 51.984V54L37.72 54.352ZM53.1503 54.448C50.0463 54.448 48.0623 52.944 48.0623 49.328V40.4H45.8543V38.32L48.5423 37.968L50.5263 33.168H53.8542L53.4062 37.936H57.1823V40.4H53.5983V49.072C53.5983 50.544 54.2703 51.152 55.5503 51.152C56.2543 51.152 56.7343 50.96 57.0223 50.864L57.7583 52.912C57.2463 53.296 55.7423 54.448 53.1503 54.448ZM59.3068 54V51.728H61.4508V41.424H59.1788V39.28L64.3948 37.552H66.0588L66.4108 41.616H67.5308C68.4268 38.608 69.5468 37.264 71.6908 37.264C73.3548 37.264 74.3787 38.256 74.6988 39.728C74.4748 41.392 73.4188 42.608 71.7868 42.608C70.7628 42.608 69.9628 42.192 69.2908 41.424C68.3308 41.936 67.5628 42.64 66.9548 43.504V51.728H69.8348V54H59.3068ZM84.4498 39.152C82.4658 39.152 81.5058 40.592 81.4098 44.56H86.8818C86.9458 43.696 86.9778 43.28 86.9778 42.416C86.9778 40.464 86.0498 39.152 84.4498 39.152ZM84.7378 54.48C79.2977 54.48 75.8738 51.248 75.8738 45.904C75.8738 40.56 79.4258 37.104 84.4818 37.104C88.9298 37.104 91.8098 39.696 91.8098 43.952C91.8098 44.912 91.7138 45.616 91.5858 46.32H81.4738C81.8258 49.648 83.7138 51.28 86.2738 51.28C88.2258 51.28 89.4098 50.608 90.4018 49.424L91.9698 50.64C90.5938 52.816 88.4818 54.48 84.7378 54.48ZM94.0895 54V51.728H96.2335V41.424H93.9615V39.28L99.1455 37.552H100.778L101.258 40.592H102.314C103.338 38.992 104.714 37.104 107.498 37.104C109.994 37.104 111.594 38.288 112.17 40.592H112.97C113.994 38.992 115.37 37.104 118.154 37.104C121.322 37.104 123.05 39.024 123.05 42.64V51.728H125.194V54H115.882V51.728H117.546V43.696C117.546 41.872 116.842 41.136 115.306 41.136C114.346 41.136 113.386 41.456 112.362 42.032C112.394 42.224 112.394 42.416 112.394 42.64V51.728H114.09V54H105.226V51.728H106.89V43.696C106.89 41.872 106.186 41.136 104.65 41.136C103.69 41.136 102.762 41.456 101.738 42V51.728H103.402V54H94.0895ZM135.794 39.152C133.81 39.152 132.85 40.592 132.754 44.56H138.226C138.29 43.696 138.322 43.28 138.322 42.416C138.322 40.464 137.394 39.152 135.794 39.152ZM136.082 54.48C130.641 54.48 127.218 51.248 127.218 45.904C127.218 40.56 130.77 37.104 135.826 37.104C140.274 37.104 143.154 39.696 143.154 43.952C143.154 44.912 143.058 45.616 142.93 46.32H132.818C133.17 49.648 135.058 51.28 137.618 51.28C139.57 51.28 140.754 50.608 141.746 49.424L143.314 50.64C141.938 52.816 139.826 54.48 136.082 54.48ZM145.433 54V51.728H147.577V41.424H145.305V39.28L150.489 37.552H152.121L152.601 40.592H153.657C154.873 38.8 156.249 37.104 159.097 37.104C162.329 37.104 164.089 39.024 164.089 42.64V51.728H166.233V54H156.825V51.728H158.585V43.696C158.585 41.872 157.849 41.136 156.249 41.136C155.193 41.136 154.169 41.488 153.081 42.128V51.728H154.809V54H145.433ZM174.307 54.448C171.203 54.448 169.219 52.944 169.219 49.328V40.4H167.011V38.32L169.699 37.968L171.683 33.168H175.01L174.562 37.936H178.339V40.4H174.755V49.072C174.755 50.544 175.427 51.152 176.707 51.152C177.411 51.152 177.891 50.96 178.179 50.864L178.915 52.912C178.403 53.296 176.899 54.448 174.307 54.448Z" fill="#3D3529"/>
  </svg>
  