<svg width="81" height="81" viewBox="0 0 81 81" fill="none" xmlns="http://www.w3.org/2000/svg">
  <rect x="0.319824" y="0.039978" width="80" height="80" rx="12" fill="#F3EDE3" />
  <path
    d="M29.3124 44.872H19.5844L18.5924 47.432C18.3364 48.0507 18.2084 48.5307 18.2084 48.872C18.2084 49.4267 18.3791 49.8107 18.7204 50.024C19.0831 50.2373 19.8084 50.3653 20.8964 50.408V52.52H12.6084V50.408C13.1844 50.3227 13.6324 50.1947 13.9524 50.024C14.2937 49.8533 14.5497 49.544 14.7204 49.096L22.5604 30.44L21.3764 27.56H28.1604L37.8884 49.096C38.1017 49.544 38.3577 49.8533 38.6564 50.024C38.9551 50.1947 39.4031 50.3227 40.0004 50.408V52.52H28.1604V50.408C29.2484 50.3653 29.9631 50.2373 30.3044 50.024C30.6671 49.8107 30.8484 49.4267 30.8484 48.872C30.8484 48.488 30.7204 48.008 30.4644 47.432L29.3124 44.872ZM24.1924 33.48L20.4804 42.536H28.2564L24.1924 33.48Z"
    fill="#3D3529" />
  <path
    d="M57.3436 44.872H47.6157L46.6236 47.432C46.3676 48.0507 46.2396 48.5307 46.2396 48.872C46.2396 49.4267 46.4103 49.8107 46.7516 50.024C47.1143 50.2373 47.8397 50.3653 48.9277 50.408V52.52H40.6396V50.408C41.2156 50.3227 41.6636 50.1947 41.9836 50.024C42.325 49.8533 42.581 49.544 42.7516 49.096L50.5916 30.44L49.4076 27.56H56.1917L65.9196 49.096C66.133 49.544 66.389 49.8533 66.6876 50.024C66.9863 50.1947 67.4343 50.3227 68.0317 50.408V52.52H56.1917V50.408C57.2797 50.3653 57.9943 50.2373 58.3356 50.024C58.6983 49.8107 58.8797 49.4267 58.8797 48.872C58.8797 48.488 58.7516 48.008 58.4956 47.432L57.3436 44.872ZM52.2236 33.48L48.5117 42.536H56.2876L52.2236 33.48Z"
    fill="#3D3529" />
</svg>