<svg width="93" height="55" viewBox="0 0 93 55" fill="none" xmlns="http://www.w3.org/2000/svg">
  <path d="M0.928 22V19.6H3.616V3.376H1.152V0.976H10.464L15.04 15.344H15.456L17.44 8.144L19.84 0.976H29.6V3.376H26.88V19.6H29.6V22H18.528V19.6H21.184C21.184 17.168 21.152 14.736 21.152 12.304V4.432H20.672L18.784 11.152L15.104 22H11.904L6.144 4.528H5.632L6.176 12.304V19.6H8.8V22H0.928ZM39.7623 7.152C37.7783 7.152 36.8183 8.592 36.7223 12.56H42.1943C42.2583 11.696 42.2903 11.28 42.2903 10.416C42.2903 8.464 41.3623 7.152 39.7623 7.152ZM40.0503 22.48C34.6102 22.48 31.1863 19.248 31.1863 13.904C31.1863 8.56 34.7383 5.104 39.7943 5.104C44.2423 5.104 47.1223 7.696 47.1223 11.952C47.1223 12.912 47.0263 13.616 46.8983 14.32H36.7863C37.1383 17.648 39.0263 19.28 41.5863 19.28C43.5383 19.28 44.7223 18.608 45.7143 17.424L47.2823 18.64C45.9062 20.816 43.7943 22.48 40.0503 22.48ZM49.402 22V19.728H51.546V9.424H49.274V7.28L54.458 5.552H56.09L56.57 8.592H57.626C58.842 6.8 60.218 5.104 63.066 5.104C66.298 5.104 68.058 7.024 68.058 10.64V19.728H70.202V22H60.794V19.728H62.554V11.696C62.554 9.872 61.818 9.136 60.218 9.136C59.162 9.136 58.138 9.488 57.05 10.128V19.728H58.778V22H49.402ZM85.47 22.352L85.054 18.96H83.998C82.75 20.784 81.406 22.48 78.558 22.48C75.326 22.48 73.534 20.56 73.566 16.912L73.662 8.912L71.262 8.336V6.416L77.278 5.552H79.102V15.888C79.102 17.68 79.806 18.416 81.406 18.416C82.462 18.416 83.486 18.096 84.574 17.456V8.88L82.27 8.336V6.416L88.286 5.552H90.11V19.472L92.382 19.984V22L85.47 22.352ZM0.928 54V51.6H3.616V35.376H1.152V32.976H10.464L15.04 47.344H15.456L17.44 40.144L19.84 32.976H29.6V35.376H26.88V51.6H29.6V54H18.528V51.6H21.184C21.184 49.168 21.152 46.736 21.152 44.304V36.432H20.672L18.784 43.152L15.104 54H11.904L6.144 36.528H5.632L6.176 44.304V51.6H8.8V54H0.928ZM39.7623 39.152C37.7783 39.152 36.8183 40.592 36.7223 44.56H42.1943C42.2583 43.696 42.2903 43.28 42.2903 42.416C42.2903 40.464 41.3623 39.152 39.7623 39.152ZM40.0503 54.48C34.6102 54.48 31.1863 51.248 31.1863 45.904C31.1863 40.56 34.7383 37.104 39.7943 37.104C44.2423 37.104 47.1223 39.696 47.1223 43.952C47.1223 44.912 47.0263 45.616 46.8983 46.32H36.7863C37.1383 49.648 39.0263 51.28 41.5863 51.28C43.5383 51.28 44.7223 50.608 45.7143 49.424L47.2823 50.64C45.9062 52.816 43.7943 54.48 40.0503 54.48ZM49.402 54V51.728H51.546V41.424H49.274V39.28L54.458 37.552H56.09L56.57 40.592H57.626C58.842 38.8 60.218 37.104 63.066 37.104C66.298 37.104 68.058 39.024 68.058 42.64V51.728H70.202V54H60.794V51.728H62.554V43.696C62.554 41.872 61.818 41.136 60.218 41.136C59.162 41.136 58.138 41.488 57.05 42.128V51.728H58.778V54H49.402ZM85.47 54.352L85.054 50.96H83.998C82.75 52.784 81.406 54.48 78.558 54.48C75.326 54.48 73.534 52.56 73.566 48.912L73.662 40.912L71.262 40.336V38.416L77.278 37.552H79.102V47.888C79.102 49.68 79.806 50.416 81.406 50.416C82.462 50.416 83.486 50.096 84.574 49.456V40.88L82.27 40.336V38.416L88.286 37.552H90.11V51.472L92.382 51.984V54L85.47 54.352Z" fill="#3D3529"/>
  </svg>
  